<svg id="logo-46" class="gradient" width="58" height="29" viewBox="0 0 58 29" fill="none"
    xmlns="http://www.w3.org/2000/svg">
    <path
        d="M-6.39719e-07 14.5C6.0374e-08 6.49187 6.49187 1.6959e-06 14.5 2.39599e-06C18.8417 2.77556e-06 22.7378 1.90824 25.3952 4.93177C30.2168 10.345 34.2038 10.0602 38.4379 6.06395C40.5154 4.10244 43.3173 2.9 46.4 2.9C52.8065 2.90001 58 8.0935 58 14.5C58 20.9065 52.8065 26.1 46.4 26.1C43.3173 26.1 40.5154 24.8975 38.4379 22.936C34.2048 18.9407 30.2187 18.655 25.3987 24.0642C22.7412 27.0901 18.8436 29 14.5 29C6.49187 29 -1.33981e-06 22.5081 -6.39719e-07 14.5Z"
        fill="#F2F5FA"></path>
    <path
        d="M-6.39719e-07 14.5C6.0374e-08 6.49187 6.49187 1.6959e-06 14.5 2.39599e-06C18.8417 2.77556e-06 22.7378 1.90824 25.3952 4.93177C30.2168 10.345 34.2038 10.0602 38.4379 6.06395C40.5154 4.10244 43.3173 2.9 46.4 2.9C52.8065 2.90001 58 8.0935 58 14.5C58 20.9065 52.8065 26.1 46.4 26.1C43.3173 26.1 40.5154 24.8975 38.4379 22.936C34.2048 18.9407 30.2187 18.655 25.3987 24.0642C22.7412 27.0901 18.8436 29 14.5 29C6.49187 29 -1.33981e-06 22.5081 -6.39719e-07 14.5Z"
        fill="url(#paint0_linear_1422_596)"></path>
    <path
        d="M-6.39719e-07 14.5C6.0374e-08 6.49187 6.49187 1.6959e-06 14.5 2.39599e-06C18.8417 2.77556e-06 22.7378 1.90824 25.3952 4.93177C30.2168 10.345 34.2038 10.0602 38.4379 6.06395C40.5154 4.10244 43.3173 2.9 46.4 2.9C52.8065 2.90001 58 8.0935 58 14.5C58 20.9065 52.8065 26.1 46.4 26.1C43.3173 26.1 40.5154 24.8975 38.4379 22.936C34.2048 18.9407 30.2187 18.655 25.3987 24.0642C22.7412 27.0901 18.8436 29 14.5 29C6.49187 29 -1.33981e-06 22.5081 -6.39719e-07 14.5Z"
        fill="url(#paint1_linear_1422_596)"></path>
    <path
        d="M-6.39719e-07 14.5C6.0374e-08 6.49187 6.49187 1.6959e-06 14.5 2.39599e-06C18.8417 2.77556e-06 22.7378 1.90824 25.3952 4.93177C30.2168 10.345 34.2038 10.0602 38.4379 6.06395C40.5154 4.10244 43.3173 2.9 46.4 2.9C52.8065 2.90001 58 8.0935 58 14.5C58 20.9065 52.8065 26.1 46.4 26.1C43.3173 26.1 40.5154 24.8975 38.4379 22.936C34.2048 18.9407 30.2187 18.655 25.3987 24.0642C22.7412 27.0901 18.8436 29 14.5 29C6.49187 29 -1.33981e-06 22.5081 -6.39719e-07 14.5Z"
        fill="url(#paint2_radial_1422_596)"></path>
    <path
        d="M-6.39719e-07 14.5C6.0374e-08 6.49187 6.49187 1.6959e-06 14.5 2.39599e-06C18.8417 2.77556e-06 22.7378 1.90824 25.3952 4.93177C30.2168 10.345 34.2038 10.0602 38.4379 6.06395C40.5154 4.10244 43.3173 2.9 46.4 2.9C52.8065 2.90001 58 8.0935 58 14.5C58 20.9065 52.8065 26.1 46.4 26.1C43.3173 26.1 40.5154 24.8975 38.4379 22.936C34.2048 18.9407 30.2187 18.655 25.3987 24.0642C22.7412 27.0901 18.8436 29 14.5 29C6.49187 29 -1.33981e-06 22.5081 -6.39719e-07 14.5Z"
        fill="url(#paint3_radial_1422_596)"></path>
    <path
        d="M-6.39719e-07 14.5C6.0374e-08 6.49187 6.49187 1.6959e-06 14.5 2.39599e-06C18.8417 2.77556e-06 22.7378 1.90824 25.3952 4.93177C30.2168 10.345 34.2038 10.0602 38.4379 6.06395C40.5154 4.10244 43.3173 2.9 46.4 2.9C52.8065 2.90001 58 8.0935 58 14.5C58 20.9065 52.8065 26.1 46.4 26.1C43.3173 26.1 40.5154 24.8975 38.4379 22.936C34.2048 18.9407 30.2187 18.655 25.3987 24.0642C22.7412 27.0901 18.8436 29 14.5 29C6.49187 29 -1.33981e-06 22.5081 -6.39719e-07 14.5Z"
        fill="url(#paint4_radial_1422_596)"></path>
    <defs>
        <linearGradient id="paint0_linear_1422_596" x1="43.6961" y1="21.7069" x2="10.3036" y2="-4.24328"
            gradientUnits="userSpaceOnUse">
            <stop class="ccustom" stop-color="#FF557E"></stop>
            <stop class="ccompli1" offset="0.841052" stop-color="#FF5555" stop-opacity="0"></stop>
        </linearGradient>
        <linearGradient id="paint1_linear_1422_596" x1="14.5023" y1="27.0553" x2="23.4238" y2="-3.84997"
            gradientUnits="userSpaceOnUse">
            <stop class="ccompli1" stop-color="#58CCDC"></stop>
            <stop class="ccompli1" offset="1" stop-color="#58CCDC" stop-opacity="0"></stop>
        </linearGradient>
        <radialGradient id="paint2_radial_1422_596" cx="0" cy="0" r="1" gradientUnits="userSpaceOnUse"
            gradientTransform="translate(45.4879 35.041) rotate(-122.928) scale(37.051 30.3393)">
            <stop class="ccompli2" stop-color="#8263DB"></stop>
            <stop offset="0.568731" stop-color="#8172DA" stop-opacity="0.26"></stop>
            <stop class="ccompli2" offset="1" stop-color="#8172DA" stop-opacity="0"></stop>
        </radialGradient>
        <radialGradient id="paint3_radial_1422_596" cx="0" cy="0" r="1" gradientUnits="userSpaceOnUse"
            gradientTransform="translate(18.3021 -4.19503) rotate(77.6745) scale(24.9567 39.2264)">
            <stop class="ccompli1" stop-color="#41D1B7"></stop>
            <stop class="ccompli1" offset="0.492704" stop-color="#41D1B7" stop-opacity="0.35"></stop>
            <stop class="ccompli1" offset="1" stop-color="#41D1B7" stop-opacity="0"></stop>
        </radialGradient>
        <radialGradient id="paint4_radial_1422_596" cx="0" cy="0" r="1" gradientUnits="userSpaceOnUse"
            gradientTransform="translate(59.6446 -10.7446) rotate(125.113) scale(27.1121 57.4261)">
            <stop class="ccompli2" stop-color="#FFEC45"></stop>
            <stop class="ccompli2" offset="0.549191" stop-color="#FFEC45" stop-opacity="0.3"></stop>
            <stop class="ccompli2" offset="0.961144" stop-color="#FFEC45" stop-opacity="0"></stop>
        </radialGradient>
    </defs>
</svg>